<?xml version="1.0" encoding="UTF-8"?>
<svg id="Layer_2" data-name="Layer 2" xmlns="http://www.w3.org/2000/svg" viewBox="0 0 185 143">
  <defs>
    <style>
      .cls-1 {
        fill: #3a4e8b;
      }

      .cls-2 {
        fill: #fef5f8;
        stroke-miterlimit: 10;
      }

      .cls-2, .cls-3 {
        stroke: #000;
      }

      .cls-4 {
        fill: none;
      }

      .cls-5 {
        fill: #1a1a1a;
        font-family: CascadiaCodeRoman-Light, 'Cascadia Code';
        font-size: 21.95px;
        font-variation-settings: 'wght' 300;
      }

      .cls-3 {
        fill: #d6ced1;
        stroke-linecap: round;
        stroke-linejoin: round;
      }
    </style>
  </defs>
  <g id="Layer_1-2" data-name="Layer 1">
    <g>
      <g>
        <path class="cls-2" d="M81.86,15.58h34.25c2.28,0,4.14,1.85,4.14,4.14V84.02c0,2.28-1.85,4.14-4.14,4.14h-47.23c-2.28,0-4.14-1.85-4.14-4.14V30.55"/>
        <g>
          <polygon class="cls-1" points="115.27 27.67 69.73 27.67 71.15 24.83 115.27 24.83 115.27 27.67"/>
          <rect class="cls-1" x="69.73" y="33.37" width="45.54" height="2.85"/>
          <rect class="cls-1" x="69.73" y="41.9" width="45.54" height="2.85"/>
          <rect class="cls-1" x="69.73" y="50.44" width="45.54" height="2.85"/>
          <rect class="cls-1" x="69.73" y="58.98" width="45.54" height="2.85"/>
          <rect class="cls-1" x="69.73" y="67.52" width="45.54" height="2.85"/>
          <rect class="cls-1" x="69.73" y="76.06" width="45.54" height="2.85"/>
        </g>
        <path class="cls-3" d="M81.86,15.58v10.84c0,2.28-1.85,4.14-4.14,4.14h-12.98s17.11-14.98,17.11-14.98Z"/>
      </g>
      <rect class="cls-4" width="185" height="143"/>
      <text class="cls-5" transform="translate(41.53 117.84)"><tspan x="0" y="0">About Me</tspan></text>
    </g>
  </g>
</svg>