<?xml version="1.0" encoding="UTF-8"?>
<svg id="Layer_2" data-name="Layer 2" xmlns="http://www.w3.org/2000/svg" viewBox="0 0 37 37">
  <defs>
    <style>
      .cls-1 {
        fill: none;
      }

      .cls-2 {
        fill: #1a1a1a;
      }
    </style>
  </defs>
  <g id="Layer_1-2" data-name="Layer 1">
    <g>
      <rect class="cls-1" width="37" height="37"/>
      <g>
        <path class="cls-2" d="M31,21.04c-.02,.07-.04,.13-.07,.22h-7.98c-.16,1.21,.64,2.33,1.85,2.61,.68,.16,1.36,.13,2.03-.07,.74-.22,1.23-.68,1.32-1.5h2.71c0,.98-.25,1.85-.89,2.58-.65,.73-1.49,1.12-2.42,1.33-1.33,.31-2.67,.3-3.99-.03-1.8-.45-3.03-1.56-3.6-3.32-.73-2.27-.41-4.42,1.01-6.35,.86-1.17,2.1-1.74,3.52-1.93,.98-.13,1.95-.11,2.91,.16,1.78,.5,2.82,1.72,3.3,3.47,.12,.44,.17,.91,.25,1.37,.01,.06,.03,.13,.04,.19v1.27Zm-3.03-1.87c.03-1-.55-1.93-1.4-2.23-.76-.26-1.53-.23-2.25,.15-.83,.43-1.22,1.18-1.43,2.08h5.08Z"/>
        <path class="cls-2" d="M16.23,17.64c1.52,.19,2.32,.95,2.63,2.55,.25,1.24,.2,2.47-.4,3.62-.59,1.13-1.58,1.76-2.78,2.06-.52,.13-1.07,.21-1.61,.22-2.61,.02-5.23,0-7.84,0-.07,0-.14,0-.23-.01V10.57c.07,0,.15-.01,.23-.01,2.61,0,5.23,0,7.84,0,.69,0,1.37,.1,2,.36,1.54,.64,2.27,1.84,2.36,3.46,.02,.46-.03,.93-.14,1.38-.23,.93-.86,1.51-1.76,1.8-.08,.03-.17,.05-.3,.08Zm-6.67,5.7c.07,0,.13,0,.18,0,1.35,0,2.7,0,4.06,0,1.05,0,1.68-.48,1.84-1.42,.07-.4,.06-.84,0-1.24-.17-1.01-.8-1.5-1.82-1.5-1.33,0-2.65,0-3.98,0h-.27v4.16Zm0-6.56c1.5,0,2.98,.01,4.46,0,.5,0,.84-.29,.99-.77,.17-.54,.2-1.09,.08-1.64-.16-.73-.56-1.04-1.31-1.04-1.32,0-2.64,0-3.95,0h-.28v3.46Z"/>
        <path class="cls-2" d="M22.23,11.49h6.37v1.88h-6.37v-1.88Z"/>
      </g>
    </g>
  </g>
</svg>