<?xml version="1.0" encoding="UTF-8"?>
<svg id="Layer_2" data-name="Layer 2" xmlns="http://www.w3.org/2000/svg" viewBox="0 0 37 37">
  <defs>
    <style>
      .cls-1 {
        fill: none;
      }

      .cls-2 {
        fill: #1a1a1a;
      }
    </style>
  </defs>
  <g id="Layer_1-2" data-name="Layer 1">
    <g>
      <rect class="cls-1" width="37" height="37"/>
      <path class="cls-2" d="M7,19.17c0-.45,0-.9,0-1.35,.02-.16,.04-.32,.06-.48,.28-2.48,1.22-4.66,2.89-6.51,1.77-1.97,3.97-3.19,6.58-3.66,.43-.08,.87-.12,1.31-.18,.45,0,.9,0,1.35,0,.38,.05,.77,.08,1.15,.15,2.4,.4,4.5,1.44,6.22,3.16,2.58,2.58,3.72,5.72,3.39,9.36-.22,2.44-1.18,4.6-2.81,6.43-2.17,2.43-4.89,3.74-8.15,3.9-2.27,.11-4.4-.42-6.35-1.6-2.99-1.82-4.82-4.46-5.46-7.91-.08-.43-.12-.87-.18-1.31Zm5.49,6.86c3.1,2.52,7.29,2.61,10,1.23-.26-1.79-1.53-6.31-1.95-6.92-2.89,.86-5.98,3.04-8.04,5.69Zm-3.63-7.92c-.05,2.5,.69,4.7,2.29,6.62,2.36-2.84,5.21-4.94,8.72-6.12-.34-.72-.66-1.41-.99-2.1-3.27,1.1-6.59,1.56-10.02,1.6Zm5.79-8.43c-2.38,.77-5.39,4.39-5.49,6.56,2.03,.12,7.58-.77,8.83-1.42-1-1.79-2.1-3.51-3.34-5.14Zm11.36,2.75c-1.59,1.46-3.4,2.55-5.37,3.4,.34,.75,.67,1.49,1.02,2.21,.02,.05,.15,.08,.21,.06,1.96-.35,3.92-.34,5.87,.02,.13,.02,.27,.04,.42,.06-.09-2.17-.81-4.08-2.15-5.77Zm-6.18,1.74c1.77-.75,3.42-1.73,4.87-3.05-1.72-1.76-6.21-2.87-8.11-2.06,1.07,1.69,2.15,3.39,3.24,5.11Zm4.38,12.13c2.1-1.61,3.38-3.65,3.84-6.2-1.02-.43-4.96-.55-5.64-.17,.77,2.06,1.38,4.17,1.8,6.37Z"/>
    </g>
  </g>
</svg>