<?xml version="1.0" encoding="UTF-8"?>
<svg id="Layer_2" data-name="Layer 2" xmlns="http://www.w3.org/2000/svg" viewBox="0 0 40 52">
  <defs>
    <style>
      .cls-1 {
        fill: #3a4e8b;
      }

      .cls-2 {
        fill: #fef5f8;
        stroke-miterlimit: 10;
      }

      .cls-2, .cls-3 {
        stroke: #000;
      }

      .cls-3 {
        fill: #d6ced1;
        stroke-linecap: round;
        stroke-linejoin: round;
      }
    </style>
  </defs>
  <g id="Layer_1-2" data-name="Layer 1">
    <g>
      <path class="cls-2" d="M12.53,.5h24.07c1.6,0,2.91,1.3,2.91,2.91V48.59c0,1.6-1.3,2.91-2.91,2.91H3.41c-1.6,0-2.91-1.3-2.91-2.91V11.02"/>
      <g>
        <polygon class="cls-1" points="36 9 4 9 5 7 36 7 36 9"/>
        <rect class="cls-1" x="4" y="13" width="32" height="2"/>
        <rect class="cls-1" x="4" y="19" width="32" height="2"/>
        <rect class="cls-1" x="4" y="25" width="32" height="2"/>
        <rect class="cls-1" x="4" y="31" width="32" height="2"/>
        <rect class="cls-1" x="4" y="37" width="32" height="2"/>
        <rect class="cls-1" x="4" y="43" width="32" height="2"/>
      </g>
      <path class="cls-3" d="M12.53,.5v7.62c0,1.6-1.3,2.91-2.91,2.91H.5S12.53,.5,12.53,.5Z"/>
    </g>
  </g>
</svg>