<?xml version="1.0" encoding="UTF-8"?>
<svg id="Layer_2" data-name="Layer 2" xmlns="http://www.w3.org/2000/svg" viewBox="0 0 37 37">
  <defs>
    <style>
      .cls-1 {
        fill: none;
      }

      .cls-2 {
        fill: #1a1a1a;
      }
    </style>
  </defs>
  <g id="Layer_1-2" data-name="Layer 1">
    <g>
      <rect class="cls-1" width="37" height="37"/>
      <path class="cls-2" d="M20.62,23.88c.61-.14,1.2-.24,1.76-.41,1.89-.57,2.94-1.87,3.26-3.79,.16-.97,.21-1.94-.08-2.9-.17-.55-.43-1.05-.81-1.49-.11-.13-.14-.24-.09-.41,.27-.9,.19-1.78-.13-2.65-.03-.09-.19-.2-.27-.19-.38,.05-.78,.09-1.13,.24-.55,.23-1.07,.56-1.61,.83-.12,.06-.27,.1-.39,.07-1.75-.42-3.5-.42-5.25,0-.13,.03-.3,0-.42-.07-.76-.47-1.52-.91-2.41-1.05-.48-.08-.54-.05-.67,.41-.24,.82-.28,1.65-.03,2.48,.02,.08,0,.2-.05,.26-1.02,1.21-1.2,2.63-.99,4.13,.13,.96,.41,1.87,1.02,2.64,.78,.98,1.84,1.44,3.03,1.69,.33,.07,.67,.12,1.03,.18-.38,.41-.57,.88-.67,1.39-.01,.08-.11,.16-.18,.19-1.26,.54-2.39,.18-3.13-1-.38-.61-.88-1.05-1.61-1.18-.14-.02-.29-.01-.43,.02-.29,.06-.33,.21-.11,.43,.08,.08,.16,.15,.25,.2,.57,.33,.98,.83,1.18,1.44,.44,1.33,1.74,1.9,3.13,1.76,.27-.03,.53-.06,.84-.1,0,.74,.02,1.46,0,2.18-.01,.4-.4,.59-.84,.44-.99-.33-1.92-.79-2.76-1.4-3.37-2.44-5.04-5.76-4.92-9.91,.15-5.34,4.11-9.88,9.37-10.83,6.11-1.1,11.99,2.97,13.15,9.11,1.06,5.59-2.08,11.12-7.4,13-.64,.22-.95,0-.95-.68,0-.95,0-1.9,.02-2.84,0-.81-.12-1.58-.71-2.2Z"/>
    </g>
  </g>
</svg>