<?xml version="1.0" encoding="UTF-8"?>
<svg id="Layer_2" data-name="Layer 2" xmlns="http://www.w3.org/2000/svg" viewBox="0 0 37 37">
  <defs>
    <style>
      .cls-1 {
        fill: none;
      }

      .cls-2 {
        fill: #1a1a1a;
      }
    </style>
  </defs>
  <g id="Layer_1-2" data-name="Layer 1">
    <g>
      <rect class="cls-1" width="37" height="37"/>
      <g>
        <path class="cls-2" d="M8.47,7.43c3.75,3.81,7.49,7.61,11.27,11.45-.13,.14-.24,.26-.35,.38-3.43,3.42-6.87,6.85-10.31,10.27-.37,.37-.6,.36-.87-.1-.14-.25-.25-.56-.25-.84-.01-6.68-.02-13.36,0-20.05,0-.37,.2-.75,.31-1.12,.06,0,.13,0,.19,.01Z"/>
        <path class="cls-2" d="M23.54,15.02c-1.11,1.11-2.16,2.17-3.25,3.26-3.58-3.64-7.17-7.29-10.77-10.95,.03-.04,.05-.08,.08-.12,4.65,2.6,9.3,5.21,13.94,7.81Z"/>
        <path class="cls-2" d="M20.94,18.94c1.12-1.13,2.19-2.21,3.27-3.27,.08-.08,.31-.09,.42-.03,1.27,.69,2.53,1.38,3.77,2.11,.84,.49,.85,1.28,.02,1.76-1.4,.81-2.83,1.58-4.26,2.35-.09,.05-.31,.02-.38-.05-.95-.94-1.88-1.89-2.85-2.87Z"/>
        <path class="cls-2" d="M10.79,29.21c3.15-3.17,6.36-6.4,9.53-9.58,.94,.9,1.89,1.8,2.9,2.77-4.21,2.31-8.36,4.59-12.43,6.82Z"/>
      </g>
    </g>
  </g>
</svg>