<?xml version="1.0" encoding="UTF-8"?>
<svg id="Layer_2" data-name="Layer 2" xmlns="http://www.w3.org/2000/svg" viewBox="0 0 37 37">
  <defs>
    <style>
      .cls-1 {
        fill: none;
      }

      .cls-2 {
        fill: #1a1a1a;
      }
    </style>
  </defs>
  <g id="Layer_1-2" data-name="Layer 1">
    <g>
      <rect class="cls-1" width="37" height="37"/>
      <g>
        <path class="cls-2" d="M8.18,15.43c1.2,.07,2.08-.43,2.79-1.38,.59,.91,1.42,1.4,2.48,1.38,1.05-.01,1.87-.5,2.45-1.39,1.28,1.97,4.11,1.75,5.16,0,.59,.9,1.42,1.39,2.48,1.39,1.06,0,1.88-.48,2.42-1.31,.43,.34,.82,.7,1.26,.98,.46,.28,.99,.4,1.58,.29,.03,.41,.07,.81,.08,1.21,.11,2.71,.15,5.42-.07,8.12-.1,1.17-.32,2.33-.52,3.49-.13,.77-.55,1.18-1.41,1.29-2.88,.38-5.76,.49-8.66,.49-2.42,0-4.85-.09-7.25-.39-.5-.06-.99-.17-1.49-.23-.25-.03-.41-.16-.47-.38-.19-.69-.44-1.38-.54-2.08-.51-3.77-.5-7.55-.34-11.34,0-.04,.01-.08,.03-.14Zm14.3,8.44c.05,.76,.25,1.42,.72,1.97,1.01,1.18,2.32,1.42,3.77,1.17,.54-.09,.87-.44,.91-.97,.03-.44,.04-.91-.07-1.33-.44-1.71-.91-3.41-1.41-5.1-.23-.8-.59-1.55-1.12-2.2-.38-.47-.84-.84-1.45-.95-1.09-.19-2.11-.05-2.93,.8-.08,.08-.22,.12-.34,.12-1.32,0-2.64-.02-3.96,0-.29,0-.49-.05-.68-.26-.91-.98-3.23-1.14-4.24,.31-.33,.48-.67,.99-.85,1.54-.55,1.67-1.04,3.35-1.51,5.04-.16,.57-.24,1.18-.25,1.77-.02,.78,.41,1.22,1.19,1.28,.42,.03,.85,.04,1.27,0,1.41-.14,2.53-1.12,2.86-2.46,.06-.23,.08-.47,.13-.72,2.65,.4,5.29,.38,7.96,0Z"/>
        <path class="cls-2" d="M25.84,12.13c-.19,.83-.57,1.44-1.25,1.83-.44,.25-.91,.36-1.42,.31-1.08-.11-1.89-.89-2.16-2.11-.39,1.35-1.23,2.16-2.64,2.1-1.29-.05-2.05-.84-2.4-2.12-.12,.63-.36,1.12-.79,1.52-.43,.39-.93,.6-1.51,.62-1.2,.04-2.01-.62-2.54-2.1-.02,.08-.03,.12-.04,.16-.29,1.2-1.42,2.05-2.57,1.94-1.12-.11-2.11-1.25-2.22-2.42-.09-.98,.17-1.81,.85-2.5,.68-.7,1.37-1.4,2.08-2.08,.13-.13,.37-.2,.56-.2,4.93-.03,9.87-.06,14.8-.07,.91,0,1.81,.04,2.72,.08,.15,0,.32,.08,.44,.17,1.06,.82,2.02,1.77,2.67,2.94,.76,1.38,.14,3.69-1.85,4.07-1.04,.2-2.23-.59-2.59-1.68-.04-.12-.07-.24-.12-.45Z"/>
        <path class="cls-2" d="M19.42,21.58v.99h-1.85v-.99h-1.1s-.04-.05-.07-.08c.68-.7,1.37-1.41,2.09-2.15,.72,.74,1.41,1.45,2.09,2.15-.02,.03-.04,.05-.06,.08h-1.1Z"/>
      </g>
    </g>
  </g>
</svg>