<?xml version="1.0" encoding="UTF-8"?>
<svg id="Layer_2" data-name="Layer 2" xmlns="http://www.w3.org/2000/svg" viewBox="0 0 37 37">
  <defs>
    <style>
      .cls-1 {
        fill: none;
      }

      .cls-2 {
        fill: #1a1a1a;
      }
    </style>
  </defs>
  <g id="Layer_1-2" data-name="Layer 1">
    <g>
      <rect class="cls-1" width="37" height="37"/>
      <path class="cls-2" d="M24.2,27.99v-.3c0-2.16,.01-4.32,0-6.48,0-.55-.05-1.1-.16-1.64-.21-1.05-.82-1.54-1.9-1.59-.69-.03-1.34,.1-1.84,.63-.42,.44-.61,1-.67,1.59-.05,.45-.07,.9-.07,1.36,0,2.06,0,4.12,0,6.17v.27h-4.14V14.65h3.97v1.77s.03,0,.05,.01c.03-.04,.07-.08,.1-.13,.72-1.14,1.78-1.75,3.08-1.94,.94-.14,1.87-.06,2.78,.23,1.31,.41,2.1,1.31,2.52,2.59,.31,.93,.42,1.89,.42,2.86,.02,2.61,.01,5.21,.02,7.82,0,.04,0,.07-.01,.13h-4.15Z"/>
      <path class="cls-2" d="M8.64,14.65h4.12v13.34h-4.12V14.65Z"/>
      <path class="cls-2" d="M13.1,10.4c0,1.34-1.07,2.41-2.41,2.41-1.33,0-2.41-1.08-2.41-2.41,0-1.33,1.07-2.39,2.4-2.4,1.34,0,2.41,1.07,2.41,2.4Z"/>
    </g>
  </g>
</svg>