<?xml version="1.0" encoding="UTF-8"?>
<svg id="Layer_2" data-name="Layer 2" xmlns="http://www.w3.org/2000/svg" viewBox="0 0 185 143">
  <defs>
    <style>
      .cls-1 {
        fill: #fbd008;
      }

      .cls-1, .cls-2 {
        stroke: #000;
        stroke-miterlimit: 10;
      }

      .cls-3 {
        fill: #3a4e8b;
      }

      .cls-2, .cls-4 {
        fill: #fef5f8;
      }

      .cls-5 {
        fill: none;
      }

      .cls-4 {
        font-family: CascadiaCodeRoman-Light, 'Cascadia Code';
        font-size: 21.95px;
        font-variation-settings: 'wght' 300;
      }
    </style>
  </defs>
  <g id="Layer_1-2" data-name="Layer 1">
    <g>
      <rect class="cls-5" width="185" height="143"/>
      <g>
        <g>
          <path class="cls-1" d="M127.04,34.31v37.96c0,2.77-2.25,5.02-5.02,5.02h-48.96c-2.77,0-5.02-2.25-5.02-5.02V30.33c0-.66,.26-1.3,.73-1.77l3.4-3.4c.55-.55,1.31-.87,2.09-.87h13.46c.83,0,1.63,.35,2.19,.97l2.9,3.21c.47,.52,1.15,.82,1.86,.82h27.34c2.77,0,5.02,2.25,5.02,5.02Z"/>
          <g>
            <rect class="cls-2" x="79.54" y="20.79" width="39" height="51" rx="2.91" ry="2.91" transform="translate(-3.72 83.59) rotate(-45)"/>
            <g>
              <rect class="cls-3" x="70.32" y="32.56" width="32" height="2" transform="translate(1.55 70.87) rotate(-45)"/>
              <rect class="cls-3" x="74.56" y="36.81" width="32" height="2" transform="translate(-.21 75.11) rotate(-45)"/>
              <rect class="cls-3" x="78.8" y="41.05" width="32" height="2" transform="translate(-1.97 79.35) rotate(-45)"/>
              <rect class="cls-3" x="83.04" y="45.29" width="32" height="2" transform="translate(-3.72 83.59) rotate(-45)"/>
              <rect class="cls-3" x="87.29" y="49.53" width="32" height="2" transform="translate(-5.48 87.84) rotate(-45)"/>
              <rect class="cls-3" x="91.53" y="53.78" width="32" height="2" transform="translate(-7.24 92.08) rotate(-45)"/>
              <rect class="cls-3" x="95.77" y="58.02" width="32" height="2" transform="translate(-9 96.32) rotate(-45)"/>
            </g>
          </g>
          <path class="cls-1" d="M122.39,77.29h-49.54c-1.7,0-3.24-1-3.94-2.55l-13.14-29.37c-1.28-2.85,.81-6.08,3.94-6.08h49.54c1.7,0,3.24,1,3.94,2.55l13.14,29.37c1.28,2.85-.81,6.08-3.94,6.08Z"/>
        </g>
        <text class="cls-4" transform="translate(8.89 117.77)"><tspan x="0" y="0">Private Files</tspan></text>
      </g>
    </g>
  </g>
</svg>