<?xml version="1.0" encoding="UTF-8"?>
<svg id="Layer_2" data-name="Layer 2" xmlns="http://www.w3.org/2000/svg" xmlns:xlink="http://www.w3.org/1999/xlink" viewBox="0 0 185 143">
  <defs>
    <style>
      .cls-1 {
        fill: #fbd008;
        stroke: #000;
      }

      .cls-1, .cls-2 {
        stroke-miterlimit: 10;
      }

      .cls-3 {
        fill: #fff;
      }

      .cls-4 {
        fill: #155976;
      }

      .cls-5 {
        fill: #1d789e;
      }

      .cls-6 {
        fill: #222;
      }

      .cls-7 {
        clip-path: url(#clippath-2);
      }

      .cls-8 {
        isolation: isolate;
      }

      .cls-9 {
        fill: #232323;
      }

      .cls-10 {
        fill: #1c1c1c;
      }

      .cls-11 {
        fill: #1b1b1b;
      }

      .cls-12 {
        clip-path: url(#clippath-1);
      }

      .cls-2 {
        fill: #ff5050;
        stroke: #333;
      }

      .cls-13 {
        fill: #242424;
      }

      .cls-14 {
        fill: #1b7195;
      }

      .cls-15 {
        fill: #212121;
      }

      .cls-16 {
        clip-path: url(#clippath);
      }

      .cls-17 {
        fill: #2c2c2c;
      }

      .cls-18 {
        fill: #1d1d1d;
      }

      .cls-19 {
        fill: #202020;
      }

      .cls-20 {
        fill: none;
      }

      .cls-21 {
        fill: #165c7a;
      }

      .cls-22 {
        fill: #196788;
      }

      .cls-23 {
        fill: #1c749a;
      }

      .cls-24 {
        fill: #1a1a1a;
        font-family: CascadiaCodeRoman-Light, 'Cascadia Code';
        font-size: 21.95px;
        font-variation-settings: 'wght' 300;
      }

      .cls-25 {
        fill: #1f1f1f;
      }

      .cls-26 {
        fill: #196a8c;
      }

      .cls-27 {
        fill: #2494c4;
      }

      .cls-28 {
        fill: #1a6d91;
      }

      .cls-29 {
        fill: #186383;
      }

      .cls-30 {
        fill: #1e1e1e;
      }

      .cls-31 {
        fill: #17607f;
      }
    </style>
    <clipPath id="clippath">
      <path class="cls-20" d="M101.96,23.93c1.19-.33,2.39-.5,3.6-.5v1c-1.11,0-2.31,.26-3.33,.47-3.16,.88-5.77,2.94-7.38,5.79-1.6,2.86-2,6.16-1.12,9.31,.88,3.16,2.94,5.77,5.79,7.38,1.86,1.05,3.92,1.58,6,1.58,1.11,0,2.3-.25,3.32-.46,3.15-.88,5.77-2.94,7.38-5.8,1.61-2.86,2.01-6.16,1.12-9.31-.88-3.15-2.94-5.77-5.79-7.38-1.87-1.04-3.92-1.58-5.99-1.58v-1c2.24,0,4.46,.59,6.48,1.71,3.07,1.73,5.29,4.55,6.25,7.94,0,0,0,0,0,0,0,.01,0,.02,0,.03,0,0,0,0,0,0,.95,3.4,.53,6.96-1.2,10.04,0,0,0,0,0,0,0,0-.01,.02-.02,.03,0,0,0,0,0,0-1.73,3.08-4.55,5.3-7.94,6.26,0,0,0,0,0,0-.01,0-.02,0-.03,0,0,0-.02,.01-.03,.01-1.15,.32-2.32,.48-3.49,.49-.03,0-.06,0-.09,0-2.24,0-4.45-.58-6.46-1.71-3.09-1.74-5.31-4.57-6.26-7.98-.95-3.41-.52-6.98,1.21-10.07,1.74-3.09,4.57-5.31,7.98-6.26Z"/>
    </clipPath>
    <clipPath id="clippath-1">
      <path class="cls-20" d="M117.96,43.68l-.87-.49c1.74-3.09,2.17-6.66,1.22-10.07s-3.19-6.25-6.26-7.98c-2.02-1.13-4.24-1.71-6.48-1.71-1.21,0-2.41,.17-3.6,.51-3.41,.95-6.25,3.17-7.98,6.26-1.73,3.09-2.16,6.66-1.21,10.07s3.17,6.25,6.26,7.98c2.02,1.13,4.24,1.71,6.49,1.71,1.2,0,2.4-.16,3.59-.49,3.41-.95,6.25-3.19,7.98-6.27l.87,.49c-1.86,3.32-4.92,5.72-8.58,6.75-1.35,.45-2.57,.53-3.85,.53-2.42,0-4.81-.62-6.98-1.84-3.32-1.87-5.71-4.92-6.74-8.59-1.03-3.67-.56-7.51,1.3-10.83,1.87-3.32,4.92-5.71,8.59-6.74,1.35-.46,2.57-.54,3.87-.54,2.42,0,4.67,.43,6.97,1.84,3.31,1.87,5.71,4.92,6.74,8.59,1.03,3.67,.56,7.51-1.31,10.83Z"/>
    </clipPath>
    <clipPath id="clippath-2">
      <path class="cls-20" d="M112.04,25.14l.49-.87c6.85,3.86,9.29,12.57,5.44,19.42-1.87,3.32-4.91,5.71-8.59,6.74-1.28,.35-2.57,.53-3.86,.53-2.42,0-4.8-.62-6.97-1.84-3.32-1.87-5.71-4.91-6.74-8.59-1.03-3.66-.57-7.51,1.3-10.84,1.86-3.31,4.91-5.71,8.58-6.73,1.28-.36,2.58-.54,3.87-.54,2.41,0,4.8,.62,6.96,1.83l-.49,.87c-2.01-1.13-4.22-1.7-6.47-1.7-1.2,0-2.5,.27-3.61,.5-3.41,.95-6.24,3.18-7.98,6.26-1.74,3.09-2.17,6.67-1.21,10.08,.95,3.42,3.18,6.24,6.27,7.98,1.87,.93,4.23,1.71,6.48,1.71,1.2,0,2.49-.26,3.59-.5,3.42-.96,6.24-3.18,7.98-6.27,3.58-6.36,1.31-14.47-5.06-18.06Z"/>
    </clipPath>
  </defs>
  <g id="Layer_1-2" data-name="Layer 1">
    <g>
      <rect class="cls-20" width="185" height="143"/>
      <g>
        <g>
          <path class="cls-1" d="M127.04,34.31v37.96c0,2.77-2.25,5.02-5.02,5.02h-48.96c-2.77,0-5.02-2.25-5.02-5.02V30.33c0-.66,.26-1.3,.73-1.77l3.4-3.4c.55-.55,1.31-.87,2.09-.87h13.46c.83,0,1.63,.35,2.19,.97l2.9,3.21c.47,.52,1.15,.82,1.86,.82h27.34c2.77,0,5.02,2.25,5.02,5.02Z"/>
          <path class="cls-1" d="M122.39,77.29h-49.54c-1.7,0-3.24-1-3.94-2.55l-13.14-29.37c-1.28-2.85,.81-6.08,3.94-6.08h49.54c1.7,0,3.24,1,3.94,2.55l13.14,29.37c1.28,2.85-.81,6.08-3.94,6.08Z"/>
        </g>
        <text class="cls-24" transform="translate(47.48 117.77)"><tspan x="0" y="0">Socials</tspan></text>
      </g>
    </g>
    <g>
      <g>
        <polygon class="cls-2" points="101.93 50.69 88.87 73.9 85.78 74.59 83.26 73.18 82.4 70.26 95.46 47.04 99.44 47.55 101.93 50.69"/>
        <g class="cls-8">
          <g class="cls-8">
            <g class="cls-16">
              <g class="cls-8">
                <path class="cls-22" d="M105.56,24.43v-1c.1,0,.2,0,.3,0l-.02,1c-.09,0-.18,0-.28,0"/>
                <path class="cls-26" d="M105.84,24.43l.02-1c.51,.01,1.02,.05,1.52,.13l-.14,.99c-.47-.07-.94-.11-1.41-.12"/>
                <path class="cls-28" d="M107.25,24.55l.14-.99c.54,.08,1.08,.19,1.6,.33l-.26,.97c-.49-.13-.98-.24-1.48-.31"/>
                <path class="cls-14" d="M108.73,24.86l.26-.97c.61,.17,1.2,.37,1.79,.63l-.4,.92c-.54-.23-1.09-.43-1.66-.58"/>
                <path class="cls-23" d="M110.39,25.44l.4-.92c.43,.18,.85,.39,1.26,.62,.32,.18,.62,.37,.92,.57l-.56,.83c-.28-.19-.56-.36-.85-.53-.38-.21-.77-.41-1.17-.58"/>
                <path class="cls-5" d="M112.41,26.54l.56-.83c2.03,1.37,3.62,3.25,4.63,5.47l-.91,.42c-.93-2.05-2.4-3.79-4.28-5.05"/>
                <path class="cls-23" d="M116.69,31.59l.91-.42c.28,.62,.52,1.27,.71,1.95,.04,.14,.08,.28,.11,.42l-.97,.24c-.03-.13-.07-.26-.1-.39-.17-.62-.39-1.22-.66-1.8"/>
                <path class="cls-14" d="M117.45,33.78l.97-.24c.15,.62,.26,1.24,.32,1.86l-1,.1c-.06-.57-.16-1.15-.3-1.72"/>
                <path class="cls-28" d="M117.74,35.5l1-.1c.05,.55,.07,1.09,.06,1.64l-1-.03c.01-.5,0-1.01-.06-1.51"/>
                <path class="cls-26" d="M117.8,37.01l1,.03c-.01,.52-.06,1.03-.13,1.54l-.99-.14c.07-.47,.11-.95,.12-1.42"/>
                <path class="cls-22" d="M117.68,38.44l.99,.14c-.07,.51-.18,1.01-.31,1.51l-.97-.26c.12-.46,.22-.93,.29-1.39"/>
                <path class="cls-29" d="M117.39,39.83l.97,.26c-.14,.52-.31,1.04-.51,1.54l-.93-.37c.19-.47,.35-.94,.48-1.42"/>
                <path class="cls-31" d="M116.92,41.26l.93,.37c-.22,.53-.47,1.06-.75,1.57-.02,.03-.03,.06-.05,.09l-.87-.5s.03-.05,.05-.08c.27-.47,.5-.96,.7-1.45"/>
                <path class="cls-21" d="M116.18,42.79l.87,.5c-.38,.66-.81,1.28-1.28,1.86l-.77-.64c.44-.53,.84-1.11,1.19-1.72"/>
                <path class="cls-4" d="M114.99,44.51l.77,.64c-1.71,2.08-4.01,3.58-6.65,4.32-1.18,.33-2.39,.5-3.59,.5-2.25,0-4.47-.58-6.49-1.71-3.09-1.74-5.31-4.57-6.26-7.98-.95-3.41-.52-6.98,1.21-10.07,1.18-2.1,2.88-3.81,4.92-4.98l.5,.87c-1.89,1.08-3.45,2.66-4.55,4.6-1.6,2.86-2,6.16-1.12,9.31,.88,3.16,2.94,5.77,5.79,7.38,1.86,1.05,3.92,1.58,6,1.58,1.11,0,2.3-.25,3.32-.46,2.44-.68,4.57-2.08,6.15-4"/>
                <path class="cls-21" d="M99.4,26.09l-.5-.87c.64-.37,1.32-.69,2.02-.95l.35,.94c-.65,.24-1.28,.53-1.87,.88"/>
                <path class="cls-31" d="M101.27,25.21l-.35-.94c.34-.13,.69-.24,1.04-.34,.15-.04,.29-.08,.44-.12l.21,1c-.13,.03-.26,.05-.39,.08-.33,.09-.65,.2-.96,.31"/>
                <path class="cls-29" d="M102.62,24.82l-.21-1c.68-.17,1.37-.28,2.06-.34l.07,1.02c-.65,.07-1.3,.2-1.91,.32"/>
                <path class="cls-22" d="M104.53,24.49l-.07-1.02c.37-.03,.73-.05,1.1-.05v1c-.34,0-.69,.02-1.03,.06"/>
              </g>
            </g>
          </g>
          <path class="cls-27" d="M105.56,24.43c2.07,0,4.12,.54,5.99,1.58,2.85,1.61,4.91,4.23,5.79,7.38,.88,3.16,.48,6.46-1.12,9.31-1.61,2.86-4.23,4.92-7.38,5.8-1.01,.21-2.21,.46-3.32,.46-2.08,0-4.13-.53-6-1.58-2.86-1.61-4.91-4.23-5.79-7.38-.88-3.16-.48-6.46,1.12-9.31,1.61-2.85,4.22-4.91,7.38-5.79,1.02-.21,2.22-.47,3.33-.47Z"/>
          <g class="cls-8">
            <g class="cls-12">
              <g class="cls-8">
                <path class="cls-11" d="M117.96,43.68l-.87-.49c1.74-3.09,2.17-6.66,1.22-10.07s-3.19-6.25-6.26-7.98c-2.02-1.13-4.24-1.71-6.48-1.71-1.21,0-2.41,.17-3.6,.51-2.65,.74-4.95,2.24-6.66,4.32l-.77-.64c1.84-2.24,4.31-3.85,7.16-4.65,1.35-.46,2.57-.54,3.87-.54,2.42,0,4.67,.43,6.97,1.84,3.31,1.87,5.71,4.92,6.74,8.59,1.03,3.67,.56,7.51-1.31,10.83"/>
                <path class="cls-10" d="M94.54,27.62l.77,.64c-.47,.58-.9,1.2-1.28,1.86l-.87-.5c.41-.71,.87-1.38,1.38-2"/>
                <path class="cls-18" d="M93.16,29.61l.87,.5s-.03,.06-.05,.09c-.28,.5-.53,1.02-.74,1.54l-.93-.37c.23-.56,.49-1.12,.79-1.66,.02-.03,.03-.06,.05-.09"/>
                <path class="cls-30" d="M92.31,31.36l.93,.37c-.2,.51-.38,1.03-.52,1.55l-.97-.26c.15-.56,.34-1.12,.56-1.67"/>
                <path class="cls-25" d="M91.76,33.03l.97,.26c-.13,.5-.24,1.01-.31,1.52l-.99-.14c.08-.55,.19-1.09,.33-1.63"/>
                <path class="cls-19" d="M91.42,34.66l.99,.14c-.07,.51-.12,1.03-.13,1.54l-1-.03c.01-.56,.06-1.11,.14-1.66"/>
                <path class="cls-15" d="M91.28,36.32l1,.03c-.01,.55,0,1.09,.06,1.64l-1,.1c-.06-.59-.08-1.18-.07-1.76"/>
                <path class="cls-6" d="M91.35,38.09l1-.1c.06,.62,.17,1.24,.32,1.86l-.97,.24c-.16-.66-.28-1.33-.34-2"/>
                <path class="cls-9" d="M91.69,40.08l.97-.24c.03,.14,.07,.28,.11,.42,.19,.68,.43,1.33,.71,1.96l-.91,.42c-.31-.67-.56-1.38-.77-2.1-.04-.15-.08-.3-.12-.45"/>
                <path class="cls-13" d="M92.58,42.64l.91-.42c1.01,2.21,2.59,4.09,4.62,5.45l-.56,.83c-2.18-1.47-3.88-3.49-4.97-5.87"/>
                <path class="cls-9" d="M97.54,48.51l.56-.83c.3,.2,.61,.4,.93,.58,.41,.23,.84,.44,1.27,.63l-.4,.92c-.46-.2-.92-.43-1.36-.68-.34-.19-.68-.4-1-.62"/>
                <path class="cls-6" d="M99.91,49.8l.4-.92c.58,.25,1.16,.45,1.76,.62l-.26,.97c-.64-.18-1.28-.4-1.89-.66"/>
                <path class="cls-15" d="M101.81,50.46l.26-.97c.53,.14,1.06,.25,1.6,.33l-.14,.99c-.58-.08-1.16-.2-1.72-.36"/>
                <path class="cls-19" d="M103.53,50.82l.14-.99c.51,.07,1.03,.12,1.55,.13l-.02,1c-.56-.01-1.11-.06-1.66-.14"/>
                <path class="cls-25" d="M105.19,50.96l.02-1c.1,0,.2,0,.31,0,.49,0,.99-.03,1.48-.08l.09,1.02c-.52,.05-1.04,.06-1.57,.06-.11,0-.22,0-.33,0"/>
                <path class="cls-30" d="M107.09,50.9l-.09-1.02c.45-.05,.91-.13,1.35-.22l.18,1.02c-.49,.12-.97,.19-1.45,.23"/>
                <path class="cls-18" d="M108.54,50.67l-.18-1.02c.25-.05,.5-.12,.75-.19,.35-.1,.7-.21,1.03-.33l.35,.94c-.36,.13-.73,.25-1.11,.36-.29,.1-.56,.17-.84,.24"/>
                <path class="cls-10" d="M110.49,50.07l-.35-.94c.7-.26,1.38-.58,2.02-.94l.5,.87c-.69,.4-1.42,.74-2.17,1.02"/>
                <path class="cls-11" d="M112.66,49.05l-.5-.87c2.04-1.18,3.74-2.89,4.93-4.99l.87,.49c-1.27,2.27-3.1,4.11-5.3,5.37"/>
              </g>
            </g>
          </g>
          <g class="cls-8">
            <g class="cls-7">
              <g class="cls-8">
                <path class="cls-9" d="M112.04,25.14l.49-.87c.34,.19,.67,.4,.99,.61l-.56,.83c-.3-.2-.6-.39-.92-.57"/>
                <path class="cls-13" d="M112.95,25.7l.56-.83c2.24,1.51,3.92,3.57,4.98,5.89l-.91,.42c-.98-2.16-2.55-4.08-4.63-5.48"/>
                <path class="cls-9" d="M117.59,31.18l.91-.42c.37,.81,.66,1.66,.88,2.52l-.97,.24c-.2-.81-.47-1.59-.82-2.35"/>
                <path class="cls-6" d="M118.4,33.53l.97-.24c.16,.66,.28,1.33,.35,2l-1,.1c-.06-.63-.17-1.25-.32-1.86"/>
                <path class="cls-15" d="M118.72,35.39l1-.1c.06,.59,.08,1.19,.07,1.78l-1-.03c.01-.55,0-1.11-.06-1.66"/>
                <path class="cls-19" d="M118.79,37.05l1,.03c-.01,.56-.06,1.11-.14,1.67l-.99-.14c.07-.52,.12-1.04,.13-1.55"/>
                <path class="cls-25" d="M118.66,38.61l.99,.14c-.08,.55-.19,1.09-.33,1.63l-.97-.26c.13-.5,.24-1.01,.31-1.51"/>
                <path class="cls-30" d="M118.35,40.12l.97,.26c-.15,.56-.33,1.11-.55,1.65l-.93-.37c.2-.51,.38-1.02,.51-1.54"/>
                <path class="cls-18" d="M117.83,41.66l.93,.37c-.23,.56-.49,1.11-.8,1.66-.02,.03-.03,.06-.05,.09l-.87-.5s.03-.06,.05-.08c.28-.5,.53-1.02,.74-1.54"/>
                <path class="cls-10" d="M117.05,43.28l.87,.5c-.41,.71-.87,1.38-1.38,2l-.77-.64c.47-.58,.9-1.2,1.28-1.86"/>
                <path class="cls-11" d="M115.76,45.14l.77,.64c-1.84,2.23-4.31,3.85-7.15,4.65-1.28,.35-2.57,.53-3.86,.53-2.42,0-4.8-.62-6.97-1.84-3.32-1.87-5.71-4.91-6.74-8.59-1.03-3.66-.57-7.51,1.3-10.84,1.27-2.26,3.09-4.09,5.29-5.35l.5,.87c-2.04,1.17-3.73,2.88-4.91,4.98-1.74,3.09-2.17,6.67-1.21,10.08,.95,3.42,3.18,6.24,6.27,7.98,1.87,.93,4.23,1.71,6.48,1.71,1.2,0,2.49-.26,3.59-.5,2.65-.75,4.94-2.25,6.65-4.32"/>
                <path class="cls-10" d="M98.9,25.22l-.5-.87c.69-.4,1.41-.74,2.17-1.02l.35,.94c-.7,.26-1.38,.58-2.02,.94"/>
                <path class="cls-18" d="M100.92,24.27l-.35-.94c.37-.14,.74-.26,1.12-.36,.16-.04,.32-.09,.48-.12l.21,1c-.14,.03-.28,.06-.42,.09-.35,.1-.7,.21-1.04,.34"/>
                <path class="cls-30" d="M102.38,23.85l-.21-1c.72-.18,1.44-.29,2.17-.36l.07,1.02c-.69,.08-1.38,.21-2.03,.34"/>
                <path class="cls-25" d="M104.41,23.51l-.07-1.02c.41-.04,.82-.05,1.23-.05,.11,0,.22,0,.33,0l-.02,1c-.1,0-.2,0-.31,0-.38,0-.77,.03-1.16,.07"/>
                <path class="cls-19" d="M105.87,23.44l.02-1c.56,.01,1.11,.06,1.66,.14l-.14,.99c-.51-.07-1.03-.12-1.54-.13"/>
                <path class="cls-15" d="M107.42,23.57l.14-.99c.58,.08,1.15,.2,1.72,.36l-.26,.97c-.53-.14-1.06-.25-1.6-.33"/>
                <path class="cls-6" d="M109.02,23.9l.26-.97c.64,.17,1.27,.4,1.89,.66l-.4,.92c-.57-.25-1.16-.45-1.76-.62"/>
                <path class="cls-9" d="M110.77,24.51l.4-.92c.46,.2,.91,.42,1.36,.67l-.49,.87c-.41-.23-.83-.44-1.26-.62"/>
              </g>
            </g>
          </g>
          <path class="cls-17" d="M112.04,25.14c6.37,3.59,8.64,11.7,5.06,18.06-1.74,3.09-4.57,5.31-7.98,6.27-1.11,.23-2.4,.5-3.59,.5-2.25,0-4.6-.78-6.48-1.71-3.09-1.74-5.31-4.57-6.27-7.98-.96-3.41-.53-6.99,1.21-10.08,1.73-3.08,4.57-5.31,7.98-6.26,1.11-.23,2.4-.5,3.61-.5,2.24,0,4.46,.57,6.47,1.7Zm5.92,18.55c1.87-3.32,2.33-7.16,1.31-10.83-1.03-3.67-3.43-6.72-6.74-8.59-2.31-1.41-4.56-1.84-6.97-1.84-1.3,0-2.51,.08-3.87,.54-3.67,1.03-6.72,3.42-8.59,6.74-1.86,3.32-2.32,7.16-1.3,10.83,1.03,3.67,3.42,6.72,6.74,8.59,2.17,1.22,4.56,1.84,6.98,1.84,1.29,0,2.5-.08,3.85-.53,3.67-1.03,6.72-3.43,8.58-6.75"/>
        </g>
      </g>
      <circle class="cls-3" cx="111.5" cy="33.5" r="3.5"/>
      <circle class="cls-3" cx="106" cy="38" r="1.5"/>
    </g>
  </g>
</svg>