<?xml version="1.0" encoding="UTF-8"?>
<svg id="Layer_2" data-name="Layer 2" xmlns="http://www.w3.org/2000/svg" viewBox="0 0 37 37">
  <defs>
    <style>
      .cls-1 {
        fill: none;
      }

      .cls-2 {
        fill: #1a1a1a;
      }
    </style>
  </defs>
  <g id="Layer_1-2" data-name="Layer 1">
    <g>
      <rect class="cls-1" width="37" height="37"/>
      <path class="cls-2" d="M17.42,27.29c-1.1-.04-3.18-.08-5.25-.18-1.02-.05-2.04-.16-3.06-.28-1.44-.17-2.46-1.18-2.75-2.66-.23-1.16-.35-2.34-.38-3.53-.03-1.17-.05-2.34-.03-3.5,.03-1.55,.14-3.09,.47-4.61,.25-1.14,1.28-2.1,2.42-2.3,1.17-.2,2.36-.29,3.55-.36,2.4-.14,4.8-.17,7.2-.14,1.56,.02,3.13,.05,4.69,.12,1.15,.05,2.3,.15,3.44,.28,1.47,.16,2.61,1.13,2.9,2.78,.23,1.26,.38,2.53,.41,3.81,.03,1.16,.03,2.32,0,3.47-.04,1.4-.17,2.8-.46,4.18-.27,1.26-1.23,2.22-2.51,2.43-.87,.14-1.74,.23-2.62,.29-2.35,.18-4.7,.19-8.03,.2Zm-1.36-5.02c2.2-1.26,4.38-2.51,6.58-3.77-2.21-1.27-4.39-2.51-6.58-3.77v7.55Z"/>
    </g>
  </g>
</svg>