<svg xmlns="http://www.w3.org/2000/svg" viewBox="0 0 69.34 69.34"><defs><style>.cls-1{fill:#333;}.cls-2{fill:#fff;}</style></defs><g id="Layer_2" data-name="Layer 2"><g id="Layer_1-2" data-name="Layer 1"><rect class="cls-1" width="69.34" height="69.34" rx="9.26"/><path class="cls-2" d="M51.22,25.57H39.64V22.26H51.22Zm2.86,16.55c-.74,2.14-3.36,5-8.45,5s-9.2-2.86-9.2-9.39,3.85-9.79,9-9.79,8.22,3,8.9,7.32a21.46,21.46,0,0,1,.15,3.54H41.24a4.46,4.46,0,0,0,7.59,3.36ZM41.36,35.5h8.21c-.17-2.56-1.88-3.67-4.1-3.67C43.05,31.83,41.71,33.1,41.36,35.5ZM25.52,47.06H14.82V22.3h11.5c9.06.13,9.23,9,4.5,11.42C36.55,35.81,36.74,47.06,25.52,47.06ZM19.78,32.19h5.93c4.15,0,4.81-5-.52-5H19.78Zm5.61,5H19.78v5h5.53C30.36,42.15,30.05,37.15,25.39,37.15Z"/></g></g></svg>