<svg xmlns="http://www.w3.org/2000/svg" viewBox="0 0 69.34 69.34"><defs><style>.cls-1{fill:#333;}.cls-2{fill:#fff;}</style></defs><g id="Layer_2" data-name="Layer 2"><g id="Layer_1-2" data-name="Layer 1"><rect class="cls-1" width="69.34" height="69.34" rx="9.26"/><path class="cls-2" d="M34.67,10.65a24,24,0,1,0,24,24A24,24,0,0,0,34.67,10.65Zm19.79,22.9a42.83,42.83,0,0,0-14.22-.14c-.49-1.13-1-2.25-1.53-3.37a28.36,28.36,0,0,0,11.1-8.17A19.77,19.77,0,0,1,54.46,33.55ZM46.77,19a24.22,24.22,0,0,1-10,7.36,94.38,94.38,0,0,0-7-10.88,19.5,19.5,0,0,1,4.86-.63A19.72,19.72,0,0,1,46.77,19ZM25.72,17A89.48,89.48,0,0,1,32.8,27.76,63.5,63.5,0,0,1,15.42,30,19.86,19.86,0,0,1,25.72,17ZM14.83,34.67l0-.51a67,67,0,0,0,19.91-2.65c.47.95.92,1.91,1.34,2.87-6.76,2.12-12.34,6.45-16.68,13A19.73,19.73,0,0,1,14.83,34.67Zm7.66,15.64c4-6.19,9-10.21,15.21-12.07a78.44,78.44,0,0,1,4.09,14.93A19.66,19.66,0,0,1,22.49,50.31Zm23.2.86a82.73,82.73,0,0,0-3.85-13.81,40.12,40.12,0,0,1,12.41.39A19.86,19.86,0,0,1,45.69,51.17Z"/></g></g></svg>