<svg xmlns="http://www.w3.org/2000/svg" viewBox="0 0 88 88"><defs><style>.cls-1{fill:#fff;}.cls-2{fill:#333;}</style></defs><g id="Layer_2" data-name="Layer 2"><g id="Layer_1-2" data-name="Layer 1"><rect class="cls-1" x="3.93" y="3.93" width="80.13" height="80.13" rx="40.07"/><path class="cls-2" d="M62.36,88H25.64A25.67,25.67,0,0,1,0,62.36V25.64A25.67,25.67,0,0,1,25.64,0H62.36A25.67,25.67,0,0,1,88,25.64V62.36A25.67,25.67,0,0,1,62.36,88ZM25.64,7.87A17.79,17.79,0,0,0,7.87,25.64V62.36A17.79,17.79,0,0,0,25.64,80.13H62.36A17.79,17.79,0,0,0,80.13,62.36V25.64A17.79,17.79,0,0,0,62.36,7.87Z"/><path class="cls-2" d="M17.5,37.09l17,10.4H25.26L17.5,43Zm7.76,10.4h9.25l-17,10.43v-6Z"/><path class="cls-2" d="M58.22,64.43v4.93H37.06V64.43Z"/><path class="cls-2" d="M25.36,7.87H63.13a20,20,0,0,1,20,20V30a0,0,0,0,1,0,0H5.41a0,0,0,0,1,0,0V27.82A20,20,0,0,1,25.36,7.87Z"/></g></g></svg>